<?xml version="1.0" encoding="utf-8"?>
<!-- Generator: Adobe Illustrator 18.1.1, SVG Export Plug-In . SVG Version: 6.00 Build 0)  -->
<svg version="1.1" id="Layer_1" xmlns="http://www.w3.org/2000/svg" xmlns:xlink="http://www.w3.org/1999/xlink" x="0px" y="0px"
	 viewBox="-463 265 32 32" enable-background="new -463 265 32 32" xml:space="preserve">
<g>
	<g>
		<g>
			<g>
				<path fill="#545454" d="M-447,266.6c7.9,0,14.4,6.5,14.4,14.4s-6.5,14.4-14.4,14.4s-14.4-6.5-14.4-14.4S-454.9,266.6-447,266.6
					 M-447,265c-8.8,0-16,7.2-16,16s7.2,16,16,16s16-7.2,16-16S-438.2,265-447,265L-447,265z"/>
			</g>
		</g>
	</g>
	<path fill="#545454" d="M-451.5,272.8c1-0.2,1.6,0.9,2.1,1.7c0.5,0.7,1,1.6,0.8,2.6c-0.2,0.6-0.6,0.8-1,1.1c-0.3,0.3-0.9,0.6-1,1
		c-0.2,0.8,0.2,1.6,0.6,2.1c0.6,1,1.4,2,2.5,2.8c0.5,0.4,1.2,1,1.9,0.8c1-0.2,1.3-1.5,2.4-1.7c1-0.2,1.8,0.6,2.4,1.1
		c0.6,0.5,1.5,1.1,1.4,2c0,0.5-0.4,0.8-0.8,1.1c-0.3,0.3-0.6,0.6-1,0.9c-0.9,0.6-1.8,0.8-3,0.8c-1.2,0-2.1-0.4-3-0.9
		c-1.7-0.9-3-2.1-4.2-3.4c-1.2-1.4-2.3-3-3-4.7c-0.8-2.2-0.4-4.5,0.9-5.9c0.2-0.2,0.6-0.5,0.9-0.7
		C-452.2,273.2-452,272.9-451.5,272.8z"/>
</g>
</svg>
